<?xml version="1.0" encoding="utf-8"?>
<!-- Generator: Adobe Illustrator 28.3.0, SVG Export Plug-In . SVG Version: 6.00 Build 0)  -->
<svg version="1.1" id="Capa_1" xmlns="http://www.w3.org/2000/svg" xmlns:xlink="http://www.w3.org/1999/xlink" x="0px" y="0px"
	 viewBox="0 0 290 286" style="enable-background:new 0 0 290 286;" xml:space="preserve">
<style type="text/css">
	.st0{fill:#F97316;}
	.st1{fill:none;}
	.st2{opacity:0.99;fill:#F97316;enable-background:new    ;}
	.st3{fill:#F97316;stroke:#F97316;stroke-width:10;stroke-miterlimit:10;}
	.st4{fill:#F97316;stroke:#F97316;stroke-width:8;stroke-miterlimit:10;}
</style>
<g>
	<circle class="st0" cx="144.7" cy="35.6" r="20.2"/>
	<path class="st1" d="M144.7,252.5"/>
	<polygon class="st2" points="269.1,154.3 280.5,162.1 281.1,221.7 270.9,230.1 	"/>
	<polygon class="st2" points="20.9,154.3 9.5,162.1 8.9,221.7 19.2,230.1 	"/>
	<g>
		<circle class="st0" cx="195.4" cy="165.8" r="27.9"/>
		<circle class="st0" cx="195.4" cy="165.8" r="22.2"/>
	</g>
	<polygon class="st2" points="257.7,137.4 270,152 271,230.1 257.7,248.4 	"/>
	<g>
		<polygon class="st2" points="31.9,137.4 19.7,152 18.7,230.1 31.9,248.4 		"/>
	</g>
	<g>
		<circle class="st0" cx="94.2" cy="165.8" r="27.9"/>
		<circle class="st0" cx="94.2" cy="165.8" r="22.2"/>
	</g>
	<path class="st3" d="M167.6,211.2c-3.8,9.1-7.7,14.5-22.5,14.2l-0.1,4.8l-0.1-4.8c-14.8,0.2-18.8-5.1-22.5-14.2
		c-2-4.5-10.3,0-8,5.9c6,11.9,14.4,18.2,30.7,17.5c16.3,0.7,24.7-5.7,30.7-17.5C177.9,211.2,169.7,206.7,167.6,211.2z"/>
	<path class="st0" d="M256.6,132.6c-11.1-21.4-34.2-34.7-59.7-39.3c-20.5-2.8-37.1-3-52.2-2.3v6.9V91c-15.1-0.7-31.6-0.5-52.1,2.3
		c-25.5,4.6-48.2,17.5-59.7,39.3c-3.9,45.8,0.2,84.6,17,111.9c9.1,11.3,23.1,16.6,40.2,17.6h54.6h0.1h54.6
		c17.1-1,31.1-6.4,40.2-17.6C256.4,217.2,260.4,178.4,256.6,132.6z M233,232.4c-9.5,15.1-23.7,20.3-32.4,20.4l-55.9,0.7l-55.9-0.7
		c-8.8-0.1-23-5.3-32.4-20.4c-12.4-24-15.4-60.5-11.7-96.7c12.1-15.9,23.8-26.7,49.5-30.8c18.8-1.8,32.4-1.8,50.5-1.6l0,0
		c0,0,0,0,0.1,0c0,0,0,0,0.1,0l0,0c18.1-0.2,31.7-0.2,50.5,1.6c25.7,4.1,37.4,14.9,49.5,30.8C248.5,171.9,245.5,208.4,233,232.4z"/>
	<g>
		<path class="st4" d="M156.6,35.6c0-6.5-5.3-11.8-11.8-11.8S133,29.1,133,35.6c0,5.9,4.3,10.7,9.9,11.6v37.2
			c-3.2,0.6-5.6,2.7-5.6,5.1c0,0.5,0.2,1.1,0.4,1.6c2.3,0,4.6,0,6.9,0l0,0l0,0h0.1l0,0c2.3,0,4.7,0,7,0c0.2-0.5,0.4-1,0.4-1.6
			c0-2.5-2.4-4.5-5.6-5.1V47.2C152.2,46.3,156.6,41.4,156.6,35.6z M144.8,43.3c-4.3,0-7.7-3.4-7.7-7.7s3.4-7.7,7.7-7.7
			s7.7,3.4,7.7,7.7C152.5,39.8,149.1,43.3,144.8,43.3z"/>
	</g>
	<path class="st1" d="M196.9,93.2c-12.7-1.6-29-2.1-45.1-2.2c-2.3,0-4.7,0-7,0l0,0h-0.1l0,0l0,0c-2.3,0-4.6,0-6.9,0
		c-16.1,0.1-32.4,0.6-45.2,2.2c-32,6.6-54.2,21.2-63.7,46.3v105.7c12.9,21.6,29.8,35.8,58,37.8h57.8l0,0h0.1l0,0h57.8
		c28.2-2,45.1-16.3,58-37.8V139.5C251.1,114.5,228.9,99.8,196.9,93.2z"/>
	<path class="st0" d="M255.6,130.8c1.1,36.5,4,76.1-16.9,107c-7.8,10.7-21,16.4-39.9,16.9h-54.1l0,0l0,0l0,0H90.5
		c-18.9-0.5-32.1-6.1-39.9-16.9c-20.9-30.9-18-70.6-16.9-107c-1.6,3-3,5.9-4,8.7v105.7c13.5,22.7,29.8,35.5,57.5,37.8h44.3l0,0h19.7
		l0,0h50.9c27.7-2.3,44-15.2,57.5-37.8V139.5C258.6,136.5,257.3,133.6,255.6,130.8z"/>
</g>
</svg>
