<?xml version="1.0" encoding="utf-8"?>
<!-- Generator: Adobe Illustrator 28.3.0, SVG Export Plug-In . SVG Version: 6.00 Build 0)  -->
<svg version="1.1" id="ojosAbiertos" xmlns="http://www.w3.org/2000/svg" xmlns:xlink="http://www.w3.org/1999/xlink" x="0px"
	 y="0px" viewBox="0 0 300.67 199.67" style="enable-background:new 0 0 300.67 199.67;" xml:space="preserve">
<style type="text/css">
	.st0{fill:none;}
	.st1{fill:url(#SVGID_1_);}
	.st2{fill:#FFFFFF;}
	.st3{opacity:0.99;fill:#7E7660;}
	.st4{opacity:0.99;}
	.st5{fill:#F46767;}
	.st6{fill:url(#SVGID_00000013878692680672420490000006223461701769894836_);}
	.st7{fill:#0C0500;}
	.st8{display:none;}
	.st9{display:inline;fill:#08070B;}
	.st10{display:inline;fill:#ECECEE;}
	.st11{display:inline;fill:#0A090C;}
	.st12{display:inline;fill:#EEEDF1;}
	.st13{fill:#0C0500;stroke:#000000;stroke-miterlimit:10;}
</style>
<path class="st0" d="M150.22,163.82"/>
<linearGradient id="SVGID_1_" gradientUnits="userSpaceOnUse" x1="150.467" y1="200.0969" x2="150.0303" y2="-25.7365">
	<stop  offset="0.0285" style="stop-color:#B00600"/>
	<stop  offset="0.068" style="stop-color:#C11E19"/>
	<stop  offset="0.1247" style="stop-color:#D43936"/>
	<stop  offset="0.1852" style="stop-color:#E44E4D"/>
	<stop  offset="0.2506" style="stop-color:#EF5D5D"/>
	<stop  offset="0.3244" style="stop-color:#F56666"/>
	<stop  offset="0.424" style="stop-color:#F76969"/>
	<stop  offset="0.7677" style="stop-color:#FFFFFF"/>
</linearGradient>
<path class="st1" d="M201.11,8.57c-12.41-1.54-28.27-2.02-43.93-2.11c-2.28-0.01-4.56-0.02-6.83-0.02v0c-0.03,0-0.07,0-0.1,0
	c-0.01,0-0.02,0-0.03,0v0c-2.23,0-4.48,0.01-6.73,0.02c-15.7,0.09-31.6,0.57-44.03,2.11C68.25,15,46.64,29.28,37.37,53.67v103
	c12.53,21.03,29.03,34.89,56.49,36.87h56.38v-0.01l0.1,0v0.01l56.38,0c27.46-1.98,43.96-15.85,56.49-36.87v-103
	C253.93,29.28,232.32,15,201.11,8.57z"/>
<polygon class="st2" points="276.72,68.07 285.44,75.72 285.9,133.77 278.05,142.04 "/>
<polygon class="st2" points="23.95,68.07 15.22,75.72 14.77,133.77 22.61,142.04 "/>
<g>
	<polygon class="st3" points="260.38,51.69 276.68,65.85 278.05,142.04 260.38,159.86 	"/>
	<g class="st4">
		<polygon class="st3" points="260.38,159.86 269.49,150.64 263.2,53.67 		"/>
	</g>
</g>
<g>
	<polygon class="st3" points="40.29,51.69 23.99,65.85 22.61,142.04 40.29,159.86 	"/>
	<g class="st4">
		<polygon class="st3" points="40.28,159.86 31.17,150.64 37.47,53.67 		"/>
	</g>
</g>
<g>
	<path class="st5" d="M259.26,45.19c-10.83-19.99-33.32-32.38-58.15-36.63c-20.02-2.61-36.17-2.78-50.86-2.13c0,0,0,0,0,0
		c-14.69-0.65-30.77-0.47-50.79,2.13C74.62,12.82,52.44,24.91,41.3,45.19c-3.76,42.67,0.15,78.91,16.58,104.31
		c8.83,10.53,22.53,15.49,39.16,16.46h53.17h0.03h0.1h53.17c16.63-0.96,30.33-5.93,39.16-16.46
		C259.11,124.1,263.03,87.86,259.26,45.19z M236.36,138.23c-9.22,14.09-23.08,18.97-31.62,19.05l-54.46,0.68l-0.03,0l-54.42-0.68
		c-8.53-0.08-22.4-4.95-31.62-19.05C52.1,115.83,49.2,81.85,52.78,48.07C64.55,33.26,76,23.19,101.03,19.38
		c18.33-1.68,31.58-1.71,49.21-1.49v0c0.01,0,0.01,0,0.02,0c0.01,0,0.02,0,0.03,0c0.02,0,0.03,0,0.05,0v0
		c17.63-0.23,30.88-0.2,49.21,1.49c25.03,3.8,36.47,13.88,48.24,28.68C251.36,81.85,248.47,115.83,236.36,138.23z"/>
</g>
<linearGradient id="SVGID_00000168800965831487242790000018186276819203956902_" gradientUnits="userSpaceOnUse" x1="150.4545" y1="193.6438" x2="150.167" y2="44.9833">
	<stop  offset="0" style="stop-color:#FFFFFF"/>
	<stop  offset="0.0902" style="stop-color:#F76969"/>
	<stop  offset="0.1043" style="stop-color:#F0605F"/>
	<stop  offset="0.1533" style="stop-color:#DC4442"/>
	<stop  offset="0.208" style="stop-color:#CC2D2A"/>
	<stop  offset="0.2694" style="stop-color:#C01C17"/>
	<stop  offset="0.3417" style="stop-color:#B70F0A"/>
	<stop  offset="0.4351" style="stop-color:#B10802"/>
	<stop  offset="0.625" style="stop-color:#B00600"/>
</linearGradient>
<path style="fill:url(#SVGID_00000168800965831487242790000018186276819203956902_);" d="M259.26,45.19
	c1.08,35.55,3.94,74.17-16.58,104.31c-7.65,10.47-20.64,16.01-39.16,16.46h-53.17v0.03h-0.03v-0.03l-53.27,0
	c-18.52-0.44-31.51-5.99-39.16-16.46C37.37,119.36,40.22,80.74,41.3,45.19c-1.58,2.91-2.93,5.74-3.94,8.47v103
	c13.28,22.09,29.28,34.59,56.49,36.87l43.5,0l0,0.02h19.38l0-0.02h49.97c27.21-2.29,43.21-14.78,56.49-36.87v-103
	C262.16,50.75,260.85,47.93,259.26,45.19z"/>
<path class="st7" d="M163.61,130.32c-2.14,5.43-4.37,8.71-12.24,8.83h-1.59l0,0c-8.25,0-10.53-3.3-12.71-8.84
	c-1.19-2.8-6.05,0-4.72,3.66c3.51,7.36,8.43,11.3,18,10.88c9.57,0.41,14.49-3.53,18-10.88C169.65,130.32,164.8,127.52,163.61,130.32
	z"/>
<g class="st8">
	<circle class="st9" cx="101.03" cy="91.47" r="27.16"/>
	<circle class="st10" cx="101.03" cy="91.47" r="21.67"/>
</g>
<g class="st8">
	<circle class="st11" cx="199.64" cy="91.47" r="27.16"/>
	<circle class="st12" cx="199.64" cy="91.47" r="21.67"/>
</g>
<path class="st13" d="M73.87,95.83l0-6.84c1.47-35.83,52.41-36.66,54.32,0l0,0l0,6.84h-4.83l-0.03-7.72
	c-0.38-24.28-40.1-32.39-44.62,0.22l0,7.5H73.87z"/>
<path class="st13" d="M172.48,95.83l0-6.84c1.47-35.83,52.41-36.66,54.32,0l0,0v6.84h-4.83l-0.03-7.72
	c-0.38-24.28-40.1-32.39-44.62,0.22v7.5H172.48z"/>
</svg>
